<mxfile host="app.diagrams.net" agent="Mozilla/5.0 (Windows NT 10.0; Win64; x64) AppleWebKit/537.36 (KHTML, like Gecko) Chrome/134.0.0.0 Safari/537.36 OPR/119.0.0.0 (Edition std-1)" version="28.0.4">
  <diagram name="Page-1" id="riTdyIcI4bcscJIrnPK_">
    <mxGraphModel dx="2898" dy="1643" grid="0" gridSize="10" guides="1" tooltips="1" connect="1" arrows="1" fold="1" page="0" pageScale="1" pageWidth="850" pageHeight="1100" math="0" shadow="0">
      <root>
        <mxCell id="0" />
        <mxCell id="1" parent="0" />
        <mxCell id="iI49a13NivbOvA1MnXWD-1" value="GottaGoGroceryÂ " style="whiteSpace=wrap;rounded=1;shadow=1;fillColor=#10739E;strokeColor=none;fontColor=#FFFFFF;fontStyle=1;fontSize=24" vertex="1" parent="1">
          <mxGeometry x="960" y="-128" width="340" height="60" as="geometry" />
        </mxCell>
        <mxCell id="iI49a13NivbOvA1MnXWD-2" value="1. Project Management" style="whiteSpace=wrap;rounded=1;fillColor=#F2931E;strokeColor=none;shadow=1;fontColor=#FFFFFF;fontStyle=1;fontSize=14" vertex="1" parent="1">
          <mxGeometry x="-245" y="115" width="180" height="76" as="geometry" />
        </mxCell>
        <mxCell id="iI49a13NivbOvA1MnXWD-3" value="2. Frontend Development (React)&#xa;" style="whiteSpace=wrap;rounded=1;fillColor=#F2931E;strokeColor=none;shadow=1;fontColor=#FFFFFF;fontStyle=1;fontSize=14" vertex="1" parent="1">
          <mxGeometry x="169" y="118" width="161" height="73" as="geometry" />
        </mxCell>
        <mxCell id="iI49a13NivbOvA1MnXWD-4" value="SUB-PROJECT 6" style="whiteSpace=wrap;rounded=1;fillColor=#F2931E;strokeColor=none;shadow=1;fontColor=#FFFFFF;fontStyle=1;fontSize=14" vertex="1" parent="1">
          <mxGeometry x="1980" y="139.9999999999998" width="140" height="60" as="geometry" />
        </mxCell>
        <mxCell id="iI49a13NivbOvA1MnXWD-5" value="SUB-PROJECT 3" style="whiteSpace=wrap;rounded=1;fillColor=#F2931E;strokeColor=none;shadow=1;fontColor=#FFFFFF;fontStyle=1;fontSize=14" vertex="1" parent="1">
          <mxGeometry x="870" y="139.9999999999998" width="140" height="60" as="geometry" />
        </mxCell>
        <mxCell id="iI49a13NivbOvA1MnXWD-6" value="SUB-PROJECT 4" style="whiteSpace=wrap;rounded=1;fillColor=#F2931E;strokeColor=none;shadow=1;fontColor=#FFFFFF;fontStyle=1;fontSize=14" vertex="1" parent="1">
          <mxGeometry x="1240" y="139.9999999999998" width="140" height="60" as="geometry" />
        </mxCell>
        <mxCell id="iI49a13NivbOvA1MnXWD-7" value="SUB-PROJECT 5" style="whiteSpace=wrap;rounded=1;fillColor=#F2931E;strokeColor=none;shadow=1;fontColor=#FFFFFF;fontStyle=1;fontSize=14" vertex="1" parent="1">
          <mxGeometry x="1610" y="139.9999999999998" width="140" height="60" as="geometry" />
        </mxCell>
        <mxCell id="iI49a13NivbOvA1MnXWD-8" value="Project Management" style="whiteSpace=wrap;rounded=1;fillColor=#12AAB5;strokeColor=none;shadow=1;fontColor=#FFFFFF;" vertex="1" parent="1">
          <mxGeometry x="-319" y="270.0000000000001" width="120" height="60" as="geometry" />
        </mxCell>
        <mxCell id="iI49a13NivbOvA1MnXWD-10" value="1.1 Requirements Gathering" style="whiteSpace=wrap;rounded=1;fillColor=#999999;strokeColor=none;shadow=1;fontColor=#FFFFFF;fontStyle=0" vertex="1" parent="1">
          <mxGeometry x="-319.00000000000006" y="370.0000000000001" width="120" height="60" as="geometry" />
        </mxCell>
        <mxCell id="iI49a13NivbOvA1MnXWD-11" value="1.2 Project Planning" style="whiteSpace=wrap;rounded=1;fillColor=#999999;strokeColor=none;shadow=1;fontColor=#FFFFFF;fontStyle=0" vertex="1" parent="1">
          <mxGeometry x="-318.9999999999999" y="450.0000000000001" width="120" height="60" as="geometry" />
        </mxCell>
        <mxCell id="iI49a13NivbOvA1MnXWD-12" value="1.3 Timeline &amp; Milestones" style="whiteSpace=wrap;rounded=1;fillColor=#999999;strokeColor=none;shadow=1;fontColor=#FFFFFF;fontStyle=0" vertex="1" parent="1">
          <mxGeometry x="-318.99999999999994" y="530.0000000000001" width="120" height="60" as="geometry" />
        </mxCell>
        <mxCell id="iI49a13NivbOvA1MnXWD-13" value="1.4 Documentation" style="whiteSpace=wrap;rounded=1;fillColor=#999999;strokeColor=none;shadow=1;fontColor=#FFFFFF;fontStyle=0" vertex="1" parent="1">
          <mxGeometry x="-318.9999999999998" y="610.0000000000001" width="120" height="60" as="geometry" />
        </mxCell>
        <mxCell id="iI49a13NivbOvA1MnXWD-14" value="1.5 Risk Management" style="whiteSpace=wrap;rounded=1;fillColor=#999999;strokeColor=none;shadow=1;fontColor=#FFFFFF;fontStyle=0" vertex="1" parent="1">
          <mxGeometry x="-318.99999999999966" y="690.0000000000001" width="120" height="60" as="geometry" />
        </mxCell>
        <mxCell id="iI49a13NivbOvA1MnXWD-20" value="2.1 Project Setup" style="whiteSpace=wrap;rounded=1;fillColor=#12AAB5;strokeColor=none;shadow=1;fontColor=#FFFFFF;" vertex="1" parent="1">
          <mxGeometry x="-92.00000000000023" y="272.0000000000001" width="120" height="60" as="geometry" />
        </mxCell>
        <mxCell id="iI49a13NivbOvA1MnXWD-21" value="2.2 Page Components" style="whiteSpace=wrap;rounded=1;fillColor=#12AAB5;strokeColor=none;shadow=1;fontColor=#FFFFFF;" vertex="1" parent="1">
          <mxGeometry x="96.99999999999977" y="272.0000000000001" width="120" height="60" as="geometry" />
        </mxCell>
        <mxCell id="iI49a13NivbOvA1MnXWD-22" value="2.1.1 Create React App" style="whiteSpace=wrap;rounded=1;fillColor=#999999;strokeColor=none;shadow=1;fontColor=#FFFFFF;fontStyle=0" vertex="1" parent="1">
          <mxGeometry x="-92.00000000000028" y="372.0000000000001" width="120" height="60" as="geometry" />
        </mxCell>
        <mxCell id="iI49a13NivbOvA1MnXWD-23" value="2.1.2 Install Dependencies (Axios, Router, Tailwind, etc.)" style="whiteSpace=wrap;rounded=1;fillColor=#999999;strokeColor=none;shadow=1;fontColor=#FFFFFF;fontStyle=0" vertex="1" parent="1">
          <mxGeometry x="-92.00000000000011" y="452.0000000000001" width="120" height="60" as="geometry" />
        </mxCell>
        <mxCell id="iI49a13NivbOvA1MnXWD-27" value="2.2.1 Landing Page" style="whiteSpace=wrap;rounded=1;fillColor=#999999;strokeColor=none;shadow=1;fontColor=#FFFFFF;fontStyle=0" vertex="1" parent="1">
          <mxGeometry x="96.99999999999932" y="372.0000000000001" width="120" height="60" as="geometry" />
        </mxCell>
        <mxCell id="iI49a13NivbOvA1MnXWD-28" value="2.2.2 Search Page" style="whiteSpace=wrap;rounded=1;fillColor=#999999;strokeColor=none;shadow=1;fontColor=#FFFFFF;fontStyle=0" vertex="1" parent="1">
          <mxGeometry x="96.99999999999955" y="452.0000000000001" width="120" height="60" as="geometry" />
        </mxCell>
        <mxCell id="iI49a13NivbOvA1MnXWD-29" value="2.2.3 Recipe Detail Page" style="whiteSpace=wrap;rounded=1;fillColor=#999999;strokeColor=none;shadow=1;fontColor=#FFFFFF;fontStyle=0" vertex="1" parent="1">
          <mxGeometry x="96.99999999999955" y="532.0000000000001" width="120" height="60" as="geometry" />
        </mxCell>
        <mxCell id="iI49a13NivbOvA1MnXWD-30" value="2.2.4 Checklist Page" style="whiteSpace=wrap;rounded=1;fillColor=#999999;strokeColor=none;shadow=1;fontColor=#FFFFFF;fontStyle=0" vertex="1" parent="1">
          <mxGeometry x="96.99999999999966" y="612.0000000000001" width="120" height="60" as="geometry" />
        </mxCell>
        <mxCell id="iI49a13NivbOvA1MnXWD-31" value="2.2.5 Saved Recipes Page" style="whiteSpace=wrap;rounded=1;fillColor=#999999;strokeColor=none;shadow=1;fontColor=#FFFFFF;fontStyle=0" vertex="1" parent="1">
          <mxGeometry x="96.99999999999977" y="692.0000000000001" width="120" height="60" as="geometry" />
        </mxCell>
        <mxCell id="iI49a13NivbOvA1MnXWD-32" value="" style="edgeStyle=elbowEdgeStyle;elbow=vertical;rounded=0;fontColor=#000000;endArrow=none;endFill=0;strokeWidth=8;strokeColor=#23445D;fontSize=12;startSize=8;endSize=8;curved=1;" edge="1" parent="1" source="iI49a13NivbOvA1MnXWD-2" target="iI49a13NivbOvA1MnXWD-8">
          <mxGeometry width="100" height="100" relative="1" as="geometry">
            <mxPoint x="-385" y="235" as="sourcePoint" />
            <mxPoint x="-285" y="135" as="targetPoint" />
          </mxGeometry>
        </mxCell>
        <mxCell id="iI49a13NivbOvA1MnXWD-34" value="" style="edgeStyle=elbowEdgeStyle;elbow=horizontal;rounded=0;fontColor=#000000;endArrow=none;endFill=0;strokeWidth=8;strokeColor=#23445D;fontSize=12;startSize=8;endSize=8;curved=1;" edge="1" parent="1" source="iI49a13NivbOvA1MnXWD-8" target="iI49a13NivbOvA1MnXWD-10">
          <mxGeometry width="100" height="100" relative="1" as="geometry">
            <mxPoint x="-379" y="450" as="sourcePoint" />
            <mxPoint x="-279" y="350" as="targetPoint" />
            <Array as="points">
              <mxPoint x="-339" y="350" />
            </Array>
          </mxGeometry>
        </mxCell>
        <mxCell id="iI49a13NivbOvA1MnXWD-35" value="" style="edgeStyle=elbowEdgeStyle;elbow=horizontal;rounded=0;fontColor=#000000;endArrow=none;endFill=0;strokeWidth=8;strokeColor=#23445D;fontSize=12;startSize=8;endSize=8;curved=1;" edge="1" parent="1" source="iI49a13NivbOvA1MnXWD-8" target="iI49a13NivbOvA1MnXWD-11">
          <mxGeometry width="100" height="100" relative="1" as="geometry">
            <mxPoint x="-309" y="310" as="sourcePoint" />
            <mxPoint x="-309" y="410" as="targetPoint" />
            <Array as="points">
              <mxPoint x="-339" y="370" />
            </Array>
          </mxGeometry>
        </mxCell>
        <mxCell id="iI49a13NivbOvA1MnXWD-36" value="" style="edgeStyle=elbowEdgeStyle;elbow=horizontal;rounded=0;fontColor=#000000;endArrow=none;endFill=0;strokeWidth=8;strokeColor=#23445D;fontSize=12;startSize=8;endSize=8;curved=1;" edge="1" parent="1" source="iI49a13NivbOvA1MnXWD-8" target="iI49a13NivbOvA1MnXWD-14">
          <mxGeometry width="100" height="100" relative="1" as="geometry">
            <mxPoint x="-309" y="310" as="sourcePoint" />
            <mxPoint x="-309" y="410" as="targetPoint" />
            <Array as="points">
              <mxPoint x="-339" y="510" />
            </Array>
          </mxGeometry>
        </mxCell>
        <mxCell id="iI49a13NivbOvA1MnXWD-37" value="" style="edgeStyle=elbowEdgeStyle;elbow=horizontal;rounded=0;fontColor=#000000;endArrow=none;endFill=0;strokeWidth=8;strokeColor=#23445D;fontSize=12;startSize=8;endSize=8;curved=1;" edge="1" parent="1" source="iI49a13NivbOvA1MnXWD-8" target="iI49a13NivbOvA1MnXWD-13">
          <mxGeometry width="100" height="100" relative="1" as="geometry">
            <mxPoint x="-289" y="330" as="sourcePoint" />
            <mxPoint x="-289" y="430" as="targetPoint" />
            <Array as="points">
              <mxPoint x="-339" y="380" />
            </Array>
          </mxGeometry>
        </mxCell>
        <mxCell id="iI49a13NivbOvA1MnXWD-38" value="" style="edgeStyle=elbowEdgeStyle;elbow=horizontal;rounded=0;fontColor=#000000;endArrow=none;endFill=0;strokeWidth=8;strokeColor=#23445D;fontSize=12;startSize=8;endSize=8;curved=1;" edge="1" parent="1" source="iI49a13NivbOvA1MnXWD-8" target="iI49a13NivbOvA1MnXWD-12">
          <mxGeometry width="100" height="100" relative="1" as="geometry">
            <mxPoint x="-279" y="340" as="sourcePoint" />
            <mxPoint x="-279" y="440" as="targetPoint" />
            <Array as="points">
              <mxPoint x="-339" y="400" />
            </Array>
          </mxGeometry>
        </mxCell>
        <mxCell id="iI49a13NivbOvA1MnXWD-44" value="" style="edgeStyle=elbowEdgeStyle;elbow=vertical;rounded=0;fontColor=#000000;endArrow=none;endFill=0;strokeWidth=8;strokeColor=#23445D;fontSize=12;startSize=8;endSize=8;curved=1;" edge="1" parent="1" source="iI49a13NivbOvA1MnXWD-3" target="iI49a13NivbOvA1MnXWD-20">
          <mxGeometry width="100" height="100" relative="1" as="geometry">
            <mxPoint x="-85" y="192.99999999999977" as="sourcePoint" />
            <mxPoint x="-185" y="263" as="targetPoint" />
          </mxGeometry>
        </mxCell>
        <mxCell id="iI49a13NivbOvA1MnXWD-45" value="" style="edgeStyle=elbowEdgeStyle;elbow=vertical;rounded=0;fontColor=#000000;endArrow=none;endFill=0;strokeWidth=8;strokeColor=#23445D;fontSize=12;startSize=8;endSize=8;curved=1;" edge="1" parent="1" source="iI49a13NivbOvA1MnXWD-3" target="iI49a13NivbOvA1MnXWD-21">
          <mxGeometry width="100" height="100" relative="1" as="geometry">
            <mxPoint x="-85" y="192.99999999999977" as="sourcePoint" />
            <mxPoint x="15" y="263" as="targetPoint" />
          </mxGeometry>
        </mxCell>
        <mxCell id="iI49a13NivbOvA1MnXWD-46" value="" style="edgeStyle=elbowEdgeStyle;elbow=horizontal;rounded=0;fontColor=#000000;endArrow=none;endFill=0;strokeWidth=8;strokeColor=#23445D;fontSize=12;startSize=8;endSize=8;curved=1;" edge="1" parent="1" source="iI49a13NivbOvA1MnXWD-20" target="iI49a13NivbOvA1MnXWD-22">
          <mxGeometry width="100" height="100" relative="1" as="geometry">
            <mxPoint x="-112" y="302.00000000000045" as="sourcePoint" />
            <mxPoint x="-102.00000000000045" y="402" as="targetPoint" />
            <Array as="points">
              <mxPoint x="-112" y="352" />
            </Array>
          </mxGeometry>
        </mxCell>
        <mxCell id="iI49a13NivbOvA1MnXWD-47" value="" style="edgeStyle=elbowEdgeStyle;elbow=horizontal;rounded=0;fontColor=#000000;endArrow=none;endFill=0;strokeWidth=8;strokeColor=#23445D;fontSize=12;startSize=8;endSize=8;curved=1;" edge="1" parent="1" source="iI49a13NivbOvA1MnXWD-20" target="iI49a13NivbOvA1MnXWD-23">
          <mxGeometry width="100" height="100" relative="1" as="geometry">
            <mxPoint x="-102" y="302" as="sourcePoint" />
            <mxPoint x="-102.00000000000023" y="482" as="targetPoint" />
            <Array as="points">
              <mxPoint x="-112" y="392" />
            </Array>
          </mxGeometry>
        </mxCell>
        <mxCell id="iI49a13NivbOvA1MnXWD-51" value="" style="edgeStyle=elbowEdgeStyle;elbow=horizontal;rounded=0;fontColor=#000000;endArrow=none;endFill=0;strokeWidth=8;strokeColor=#23445D;fontSize=12;startSize=8;endSize=8;curved=1;" edge="1" parent="1" source="iI49a13NivbOvA1MnXWD-21" target="iI49a13NivbOvA1MnXWD-27">
          <mxGeometry width="100" height="100" relative="1" as="geometry">
            <mxPoint x="67" y="302.00000000000045" as="sourcePoint" />
            <mxPoint x="76.99999999999955" y="402" as="targetPoint" />
            <Array as="points">
              <mxPoint x="77" y="352" />
            </Array>
          </mxGeometry>
        </mxCell>
        <mxCell id="iI49a13NivbOvA1MnXWD-52" value="" style="edgeStyle=elbowEdgeStyle;elbow=horizontal;rounded=0;fontColor=#000000;endArrow=none;endFill=0;strokeWidth=8;strokeColor=#23445D;fontSize=12;startSize=8;endSize=8;curved=1;" edge="1" parent="1" source="iI49a13NivbOvA1MnXWD-21" target="iI49a13NivbOvA1MnXWD-28">
          <mxGeometry width="100" height="100" relative="1" as="geometry">
            <mxPoint x="77" y="302" as="sourcePoint" />
            <mxPoint x="76.99999999999977" y="482" as="targetPoint" />
            <Array as="points">
              <mxPoint x="77" y="392" />
            </Array>
          </mxGeometry>
        </mxCell>
        <mxCell id="iI49a13NivbOvA1MnXWD-53" value="" style="edgeStyle=elbowEdgeStyle;elbow=horizontal;rounded=0;fontColor=#000000;endArrow=none;endFill=0;strokeWidth=8;strokeColor=#23445D;fontSize=12;startSize=8;endSize=8;curved=1;" edge="1" parent="1" source="iI49a13NivbOvA1MnXWD-21" target="iI49a13NivbOvA1MnXWD-31">
          <mxGeometry width="100" height="100" relative="1" as="geometry">
            <mxPoint x="77" y="302" as="sourcePoint" />
            <mxPoint x="77" y="722" as="targetPoint" />
            <Array as="points">
              <mxPoint x="77" y="512" />
            </Array>
          </mxGeometry>
        </mxCell>
        <mxCell id="iI49a13NivbOvA1MnXWD-54" value="" style="edgeStyle=elbowEdgeStyle;elbow=horizontal;rounded=0;fontColor=#000000;endArrow=none;endFill=0;strokeWidth=8;strokeColor=#23445D;fontSize=12;startSize=8;endSize=8;curved=1;" edge="1" parent="1" source="iI49a13NivbOvA1MnXWD-21" target="iI49a13NivbOvA1MnXWD-30">
          <mxGeometry width="100" height="100" relative="1" as="geometry">
            <mxPoint x="77" y="302" as="sourcePoint" />
            <mxPoint x="77" y="642" as="targetPoint" />
            <Array as="points">
              <mxPoint x="77" y="472" />
            </Array>
          </mxGeometry>
        </mxCell>
        <mxCell id="iI49a13NivbOvA1MnXWD-55" value="" style="edgeStyle=elbowEdgeStyle;elbow=horizontal;rounded=0;fontColor=#000000;endArrow=none;endFill=0;strokeWidth=8;strokeColor=#23445D;fontSize=12;startSize=8;endSize=8;curved=1;" edge="1" parent="1" source="iI49a13NivbOvA1MnXWD-21" target="iI49a13NivbOvA1MnXWD-29">
          <mxGeometry width="100" height="100" relative="1" as="geometry">
            <mxPoint x="77" y="302" as="sourcePoint" />
            <mxPoint x="76.99999999999977" y="562" as="targetPoint" />
            <Array as="points">
              <mxPoint x="77" y="442" />
            </Array>
          </mxGeometry>
        </mxCell>
        <mxCell id="iI49a13NivbOvA1MnXWD-56" value="SUB-TASK 1" style="whiteSpace=wrap;rounded=1;fillColor=#12AAB5;strokeColor=none;shadow=1;fontColor=#FFFFFF;" vertex="1" parent="1">
          <mxGeometry x="779.9999999999998" y="270.0000000000001" width="120" height="60" as="geometry" />
        </mxCell>
        <mxCell id="iI49a13NivbOvA1MnXWD-57" value="SUB-TASK 2" style="whiteSpace=wrap;rounded=1;fillColor=#12AAB5;strokeColor=none;shadow=1;fontColor=#FFFFFF;" vertex="1" parent="1">
          <mxGeometry x="979.9999999999998" y="270.0000000000001" width="120" height="60" as="geometry" />
        </mxCell>
        <mxCell id="iI49a13NivbOvA1MnXWD-58" value="WORK&#xa;PACKAGE 1" style="whiteSpace=wrap;rounded=1;fillColor=#999999;strokeColor=none;shadow=1;fontColor=#FFFFFF;fontStyle=0" vertex="1" parent="1">
          <mxGeometry x="779.9999999999998" y="370.0000000000001" width="120" height="60" as="geometry" />
        </mxCell>
        <mxCell id="iI49a13NivbOvA1MnXWD-59" value="WORK&#xa;PACKAGE 2" style="whiteSpace=wrap;rounded=1;fillColor=#999999;strokeColor=none;shadow=1;fontColor=#FFFFFF;fontStyle=0" vertex="1" parent="1">
          <mxGeometry x="779.9999999999999" y="450.0000000000001" width="120" height="60" as="geometry" />
        </mxCell>
        <mxCell id="iI49a13NivbOvA1MnXWD-60" value="WORK&#xa;PACKAGE 3" style="whiteSpace=wrap;rounded=1;fillColor=#999999;strokeColor=none;shadow=1;fontColor=#FFFFFF;fontStyle=0" vertex="1" parent="1">
          <mxGeometry x="779.9999999999998" y="530.0000000000001" width="120" height="60" as="geometry" />
        </mxCell>
        <mxCell id="iI49a13NivbOvA1MnXWD-61" value="WORK&#xa;PACKAGE 4" style="whiteSpace=wrap;rounded=1;fillColor=#999999;strokeColor=none;shadow=1;fontColor=#FFFFFF;fontStyle=0" vertex="1" parent="1">
          <mxGeometry x="780" y="610.0000000000001" width="120" height="60" as="geometry" />
        </mxCell>
        <mxCell id="iI49a13NivbOvA1MnXWD-62" value="WORK&#xa;PACKAGE 5" style="whiteSpace=wrap;rounded=1;fillColor=#999999;strokeColor=none;shadow=1;fontColor=#FFFFFF;fontStyle=0" vertex="1" parent="1">
          <mxGeometry x="780.0000000000001" y="690.0000000000001" width="120" height="60" as="geometry" />
        </mxCell>
        <mxCell id="iI49a13NivbOvA1MnXWD-63" value="WORK&#xa;PACKAGE 1" style="whiteSpace=wrap;rounded=1;fillColor=#999999;strokeColor=none;shadow=1;fontColor=#FFFFFF;fontStyle=0" vertex="1" parent="1">
          <mxGeometry x="979.9999999999993" y="370.0000000000001" width="120" height="60" as="geometry" />
        </mxCell>
        <mxCell id="iI49a13NivbOvA1MnXWD-64" value="WORK&#xa;PACKAGE 2" style="whiteSpace=wrap;rounded=1;fillColor=#999999;strokeColor=none;shadow=1;fontColor=#FFFFFF;fontStyle=0" vertex="1" parent="1">
          <mxGeometry x="979.9999999999995" y="450.0000000000001" width="120" height="60" as="geometry" />
        </mxCell>
        <mxCell id="iI49a13NivbOvA1MnXWD-65" value="WORK&#xa;PACKAGE 3" style="whiteSpace=wrap;rounded=1;fillColor=#999999;strokeColor=none;shadow=1;fontColor=#FFFFFF;fontStyle=0" vertex="1" parent="1">
          <mxGeometry x="979.9999999999995" y="530.0000000000001" width="120" height="60" as="geometry" />
        </mxCell>
        <mxCell id="iI49a13NivbOvA1MnXWD-66" value="WORK&#xa;PACKAGE 4" style="whiteSpace=wrap;rounded=1;fillColor=#999999;strokeColor=none;shadow=1;fontColor=#FFFFFF;fontStyle=0" vertex="1" parent="1">
          <mxGeometry x="979.9999999999995" y="610.0000000000001" width="120" height="60" as="geometry" />
        </mxCell>
        <mxCell id="iI49a13NivbOvA1MnXWD-67" value="WORK&#xa;PACKAGE 5" style="whiteSpace=wrap;rounded=1;fillColor=#999999;strokeColor=none;shadow=1;fontColor=#FFFFFF;fontStyle=0" vertex="1" parent="1">
          <mxGeometry x="979.9999999999998" y="690.0000000000001" width="120" height="60" as="geometry" />
        </mxCell>
        <mxCell id="iI49a13NivbOvA1MnXWD-68" value="" style="edgeStyle=elbowEdgeStyle;elbow=horizontal;rounded=0;fontColor=#000000;endArrow=none;endFill=0;strokeWidth=8;strokeColor=#23445D;fontSize=12;startSize=8;endSize=8;curved=1;" edge="1" parent="1" source="iI49a13NivbOvA1MnXWD-56" target="iI49a13NivbOvA1MnXWD-58">
          <mxGeometry width="100" height="100" relative="1" as="geometry">
            <mxPoint x="760" y="300.00000000000045" as="sourcePoint" />
            <mxPoint x="769.9999999999995" y="400" as="targetPoint" />
            <Array as="points">
              <mxPoint x="760" y="350" />
            </Array>
          </mxGeometry>
        </mxCell>
        <mxCell id="iI49a13NivbOvA1MnXWD-69" value="" style="edgeStyle=elbowEdgeStyle;elbow=horizontal;rounded=0;fontColor=#000000;endArrow=none;endFill=0;strokeWidth=8;strokeColor=#23445D;fontSize=12;startSize=8;endSize=8;curved=1;" edge="1" parent="1" source="iI49a13NivbOvA1MnXWD-56" target="iI49a13NivbOvA1MnXWD-59">
          <mxGeometry width="100" height="100" relative="1" as="geometry">
            <mxPoint x="770" y="300" as="sourcePoint" />
            <mxPoint x="769.9999999999998" y="480" as="targetPoint" />
            <Array as="points">
              <mxPoint x="760" y="390" />
            </Array>
          </mxGeometry>
        </mxCell>
        <mxCell id="iI49a13NivbOvA1MnXWD-70" value="" style="edgeStyle=elbowEdgeStyle;elbow=horizontal;rounded=0;fontColor=#000000;endArrow=none;endFill=0;strokeWidth=8;strokeColor=#23445D;fontSize=12;startSize=8;endSize=8;curved=1;" edge="1" parent="1" source="iI49a13NivbOvA1MnXWD-56" target="iI49a13NivbOvA1MnXWD-62">
          <mxGeometry width="100" height="100" relative="1" as="geometry">
            <mxPoint x="770" y="300" as="sourcePoint" />
            <mxPoint x="770" y="720" as="targetPoint" />
            <Array as="points">
              <mxPoint x="760" y="520" />
            </Array>
          </mxGeometry>
        </mxCell>
        <mxCell id="iI49a13NivbOvA1MnXWD-71" value="" style="edgeStyle=elbowEdgeStyle;elbow=horizontal;rounded=0;fontColor=#000000;endArrow=none;endFill=0;strokeWidth=8;strokeColor=#23445D;fontSize=12;startSize=8;endSize=8;curved=1;" edge="1" parent="1" source="iI49a13NivbOvA1MnXWD-56" target="iI49a13NivbOvA1MnXWD-61">
          <mxGeometry width="100" height="100" relative="1" as="geometry">
            <mxPoint x="770" y="300" as="sourcePoint" />
            <mxPoint x="770" y="640" as="targetPoint" />
            <Array as="points">
              <mxPoint x="760" y="470" />
            </Array>
          </mxGeometry>
        </mxCell>
        <mxCell id="iI49a13NivbOvA1MnXWD-72" value="" style="edgeStyle=elbowEdgeStyle;elbow=horizontal;rounded=0;fontColor=#000000;endArrow=none;endFill=0;strokeWidth=8;strokeColor=#23445D;fontSize=12;startSize=8;endSize=8;curved=1;" edge="1" parent="1" source="iI49a13NivbOvA1MnXWD-56" target="iI49a13NivbOvA1MnXWD-60">
          <mxGeometry width="100" height="100" relative="1" as="geometry">
            <mxPoint x="770" y="300" as="sourcePoint" />
            <mxPoint x="769.9999999999998" y="560" as="targetPoint" />
            <Array as="points">
              <mxPoint x="760" y="440" />
            </Array>
          </mxGeometry>
        </mxCell>
        <mxCell id="iI49a13NivbOvA1MnXWD-73" value="" style="edgeStyle=elbowEdgeStyle;elbow=horizontal;rounded=0;fontColor=#000000;endArrow=none;endFill=0;strokeWidth=8;strokeColor=#23445D;fontSize=12;startSize=8;endSize=8;curved=1;" edge="1" parent="1" source="iI49a13NivbOvA1MnXWD-57" target="iI49a13NivbOvA1MnXWD-63">
          <mxGeometry width="100" height="100" relative="1" as="geometry">
            <mxPoint x="950" y="300.00000000000045" as="sourcePoint" />
            <mxPoint x="959.9999999999995" y="400" as="targetPoint" />
            <Array as="points">
              <mxPoint x="960" y="350" />
            </Array>
          </mxGeometry>
        </mxCell>
        <mxCell id="iI49a13NivbOvA1MnXWD-74" value="" style="edgeStyle=elbowEdgeStyle;elbow=horizontal;rounded=0;fontColor=#000000;endArrow=none;endFill=0;strokeWidth=8;strokeColor=#23445D;fontSize=12;startSize=8;endSize=8;curved=1;" edge="1" parent="1" source="iI49a13NivbOvA1MnXWD-57" target="iI49a13NivbOvA1MnXWD-64">
          <mxGeometry width="100" height="100" relative="1" as="geometry">
            <mxPoint x="960" y="300" as="sourcePoint" />
            <mxPoint x="959.9999999999998" y="480" as="targetPoint" />
            <Array as="points">
              <mxPoint x="960" y="390" />
            </Array>
          </mxGeometry>
        </mxCell>
        <mxCell id="iI49a13NivbOvA1MnXWD-75" value="" style="edgeStyle=elbowEdgeStyle;elbow=horizontal;rounded=0;fontColor=#000000;endArrow=none;endFill=0;strokeWidth=8;strokeColor=#23445D;fontSize=12;startSize=8;endSize=8;curved=1;" edge="1" parent="1" source="iI49a13NivbOvA1MnXWD-57" target="iI49a13NivbOvA1MnXWD-67">
          <mxGeometry width="100" height="100" relative="1" as="geometry">
            <mxPoint x="960" y="300" as="sourcePoint" />
            <mxPoint x="960" y="720" as="targetPoint" />
            <Array as="points">
              <mxPoint x="960" y="510" />
            </Array>
          </mxGeometry>
        </mxCell>
        <mxCell id="iI49a13NivbOvA1MnXWD-76" value="" style="edgeStyle=elbowEdgeStyle;elbow=horizontal;rounded=0;fontColor=#000000;endArrow=none;endFill=0;strokeWidth=8;strokeColor=#23445D;fontSize=12;startSize=8;endSize=8;curved=1;" edge="1" parent="1" source="iI49a13NivbOvA1MnXWD-57" target="iI49a13NivbOvA1MnXWD-66">
          <mxGeometry width="100" height="100" relative="1" as="geometry">
            <mxPoint x="960" y="300" as="sourcePoint" />
            <mxPoint x="960" y="640" as="targetPoint" />
            <Array as="points">
              <mxPoint x="960" y="470" />
            </Array>
          </mxGeometry>
        </mxCell>
        <mxCell id="iI49a13NivbOvA1MnXWD-77" value="" style="edgeStyle=elbowEdgeStyle;elbow=horizontal;rounded=0;fontColor=#000000;endArrow=none;endFill=0;strokeWidth=8;strokeColor=#23445D;fontSize=12;startSize=8;endSize=8;curved=1;" edge="1" parent="1" source="iI49a13NivbOvA1MnXWD-57" target="iI49a13NivbOvA1MnXWD-65">
          <mxGeometry width="100" height="100" relative="1" as="geometry">
            <mxPoint x="960" y="300" as="sourcePoint" />
            <mxPoint x="959.9999999999998" y="560" as="targetPoint" />
            <Array as="points">
              <mxPoint x="960" y="440" />
            </Array>
          </mxGeometry>
        </mxCell>
        <mxCell id="iI49a13NivbOvA1MnXWD-78" value="SUB-TASK 1" style="whiteSpace=wrap;rounded=1;fillColor=#12AAB5;strokeColor=none;shadow=1;fontColor=#FFFFFF;" vertex="1" parent="1">
          <mxGeometry x="1149.9999999999998" y="270.0000000000002" width="120" height="60" as="geometry" />
        </mxCell>
        <mxCell id="iI49a13NivbOvA1MnXWD-79" value="SUB-TASK 2" style="whiteSpace=wrap;rounded=1;fillColor=#12AAB5;strokeColor=none;shadow=1;fontColor=#FFFFFF;" vertex="1" parent="1">
          <mxGeometry x="1349.9999999999998" y="270.0000000000002" width="120" height="60" as="geometry" />
        </mxCell>
        <mxCell id="iI49a13NivbOvA1MnXWD-80" value="WORK&#xa;PACKAGE 1" style="whiteSpace=wrap;rounded=1;fillColor=#999999;strokeColor=none;shadow=1;fontColor=#FFFFFF;fontStyle=0" vertex="1" parent="1">
          <mxGeometry x="1149.9999999999998" y="370.0000000000002" width="120" height="60" as="geometry" />
        </mxCell>
        <mxCell id="iI49a13NivbOvA1MnXWD-81" value="WORK&#xa;PACKAGE 2" style="whiteSpace=wrap;rounded=1;fillColor=#999999;strokeColor=none;shadow=1;fontColor=#FFFFFF;fontStyle=0" vertex="1" parent="1">
          <mxGeometry x="1150" y="450.0000000000002" width="120" height="60" as="geometry" />
        </mxCell>
        <mxCell id="iI49a13NivbOvA1MnXWD-82" value="WORK&#xa;PACKAGE 3" style="whiteSpace=wrap;rounded=1;fillColor=#999999;strokeColor=none;shadow=1;fontColor=#FFFFFF;fontStyle=0" vertex="1" parent="1">
          <mxGeometry x="1149.9999999999998" y="530.0000000000002" width="120" height="60" as="geometry" />
        </mxCell>
        <mxCell id="iI49a13NivbOvA1MnXWD-83" value="WORK&#xa;PACKAGE 4" style="whiteSpace=wrap;rounded=1;fillColor=#999999;strokeColor=none;shadow=1;fontColor=#FFFFFF;fontStyle=0" vertex="1" parent="1">
          <mxGeometry x="1150" y="610.0000000000002" width="120" height="60" as="geometry" />
        </mxCell>
        <mxCell id="iI49a13NivbOvA1MnXWD-84" value="WORK&#xa;PACKAGE 5" style="whiteSpace=wrap;rounded=1;fillColor=#999999;strokeColor=none;shadow=1;fontColor=#FFFFFF;fontStyle=0" vertex="1" parent="1">
          <mxGeometry x="1150" y="690.0000000000002" width="120" height="60" as="geometry" />
        </mxCell>
        <mxCell id="iI49a13NivbOvA1MnXWD-85" value="WORK&#xa;PACKAGE 1" style="whiteSpace=wrap;rounded=1;fillColor=#999999;strokeColor=none;shadow=1;fontColor=#FFFFFF;fontStyle=0" vertex="1" parent="1">
          <mxGeometry x="1349.9999999999993" y="370.0000000000002" width="120" height="60" as="geometry" />
        </mxCell>
        <mxCell id="iI49a13NivbOvA1MnXWD-86" value="WORK&#xa;PACKAGE 2" style="whiteSpace=wrap;rounded=1;fillColor=#999999;strokeColor=none;shadow=1;fontColor=#FFFFFF;fontStyle=0" vertex="1" parent="1">
          <mxGeometry x="1349.9999999999995" y="450.0000000000002" width="120" height="60" as="geometry" />
        </mxCell>
        <mxCell id="iI49a13NivbOvA1MnXWD-87" value="WORK&#xa;PACKAGE 3" style="whiteSpace=wrap;rounded=1;fillColor=#999999;strokeColor=none;shadow=1;fontColor=#FFFFFF;fontStyle=0" vertex="1" parent="1">
          <mxGeometry x="1349.9999999999995" y="530.0000000000002" width="120" height="60" as="geometry" />
        </mxCell>
        <mxCell id="iI49a13NivbOvA1MnXWD-88" value="WORK&#xa;PACKAGE 4" style="whiteSpace=wrap;rounded=1;fillColor=#999999;strokeColor=none;shadow=1;fontColor=#FFFFFF;fontStyle=0" vertex="1" parent="1">
          <mxGeometry x="1349.9999999999995" y="610.0000000000002" width="120" height="60" as="geometry" />
        </mxCell>
        <mxCell id="iI49a13NivbOvA1MnXWD-89" value="WORK&#xa;PACKAGE 5" style="whiteSpace=wrap;rounded=1;fillColor=#999999;strokeColor=none;shadow=1;fontColor=#FFFFFF;fontStyle=0" vertex="1" parent="1">
          <mxGeometry x="1349.9999999999998" y="690.0000000000002" width="120" height="60" as="geometry" />
        </mxCell>
        <mxCell id="iI49a13NivbOvA1MnXWD-90" value="" style="edgeStyle=elbowEdgeStyle;elbow=horizontal;rounded=0;fontColor=#000000;endArrow=none;endFill=0;strokeWidth=8;strokeColor=#23445D;fontSize=12;startSize=8;endSize=8;curved=1;" edge="1" parent="1" source="iI49a13NivbOvA1MnXWD-78" target="iI49a13NivbOvA1MnXWD-80">
          <mxGeometry width="100" height="100" relative="1" as="geometry">
            <mxPoint x="1130" y="300.00000000000057" as="sourcePoint" />
            <mxPoint x="1139.9999999999995" y="400.0000000000001" as="targetPoint" />
            <Array as="points">
              <mxPoint x="1130" y="350.0000000000001" />
            </Array>
          </mxGeometry>
        </mxCell>
        <mxCell id="iI49a13NivbOvA1MnXWD-91" value="" style="edgeStyle=elbowEdgeStyle;elbow=horizontal;rounded=0;fontColor=#000000;endArrow=none;endFill=0;strokeWidth=8;strokeColor=#23445D;fontSize=12;startSize=8;endSize=8;curved=1;" edge="1" parent="1" source="iI49a13NivbOvA1MnXWD-78" target="iI49a13NivbOvA1MnXWD-81">
          <mxGeometry width="100" height="100" relative="1" as="geometry">
            <mxPoint x="1140" y="300.0000000000001" as="sourcePoint" />
            <mxPoint x="1139.9999999999998" y="480.0000000000001" as="targetPoint" />
            <Array as="points">
              <mxPoint x="1130" y="390.0000000000001" />
            </Array>
          </mxGeometry>
        </mxCell>
        <mxCell id="iI49a13NivbOvA1MnXWD-92" value="" style="edgeStyle=elbowEdgeStyle;elbow=horizontal;rounded=0;fontColor=#000000;endArrow=none;endFill=0;strokeWidth=8;strokeColor=#23445D;fontSize=12;startSize=8;endSize=8;curved=1;" edge="1" parent="1" source="iI49a13NivbOvA1MnXWD-78" target="iI49a13NivbOvA1MnXWD-84">
          <mxGeometry width="100" height="100" relative="1" as="geometry">
            <mxPoint x="1140" y="300.0000000000001" as="sourcePoint" />
            <mxPoint x="1140" y="720.0000000000001" as="targetPoint" />
            <Array as="points">
              <mxPoint x="1130" y="520.0000000000001" />
            </Array>
          </mxGeometry>
        </mxCell>
        <mxCell id="iI49a13NivbOvA1MnXWD-93" value="" style="edgeStyle=elbowEdgeStyle;elbow=horizontal;rounded=0;fontColor=#000000;endArrow=none;endFill=0;strokeWidth=8;strokeColor=#23445D;fontSize=12;startSize=8;endSize=8;curved=1;" edge="1" parent="1" source="iI49a13NivbOvA1MnXWD-78" target="iI49a13NivbOvA1MnXWD-83">
          <mxGeometry width="100" height="100" relative="1" as="geometry">
            <mxPoint x="1140" y="300.0000000000001" as="sourcePoint" />
            <mxPoint x="1140" y="640.0000000000001" as="targetPoint" />
            <Array as="points">
              <mxPoint x="1130" y="470.0000000000001" />
            </Array>
          </mxGeometry>
        </mxCell>
        <mxCell id="iI49a13NivbOvA1MnXWD-94" value="" style="edgeStyle=elbowEdgeStyle;elbow=horizontal;rounded=0;fontColor=#000000;endArrow=none;endFill=0;strokeWidth=8;strokeColor=#23445D;fontSize=12;startSize=8;endSize=8;curved=1;" edge="1" parent="1" source="iI49a13NivbOvA1MnXWD-78" target="iI49a13NivbOvA1MnXWD-82">
          <mxGeometry width="100" height="100" relative="1" as="geometry">
            <mxPoint x="1140" y="300.0000000000001" as="sourcePoint" />
            <mxPoint x="1139.9999999999998" y="560.0000000000001" as="targetPoint" />
            <Array as="points">
              <mxPoint x="1130" y="440.0000000000001" />
            </Array>
          </mxGeometry>
        </mxCell>
        <mxCell id="iI49a13NivbOvA1MnXWD-95" value="" style="edgeStyle=elbowEdgeStyle;elbow=horizontal;rounded=0;fontColor=#000000;endArrow=none;endFill=0;strokeWidth=8;strokeColor=#23445D;fontSize=12;startSize=8;endSize=8;curved=1;" edge="1" parent="1" source="iI49a13NivbOvA1MnXWD-79" target="iI49a13NivbOvA1MnXWD-85">
          <mxGeometry width="100" height="100" relative="1" as="geometry">
            <mxPoint x="1320" y="300.00000000000057" as="sourcePoint" />
            <mxPoint x="1329.9999999999995" y="400.0000000000001" as="targetPoint" />
            <Array as="points">
              <mxPoint x="1330" y="350.0000000000001" />
            </Array>
          </mxGeometry>
        </mxCell>
        <mxCell id="iI49a13NivbOvA1MnXWD-96" value="" style="edgeStyle=elbowEdgeStyle;elbow=horizontal;rounded=0;fontColor=#000000;endArrow=none;endFill=0;strokeWidth=8;strokeColor=#23445D;fontSize=12;startSize=8;endSize=8;curved=1;" edge="1" parent="1" source="iI49a13NivbOvA1MnXWD-79" target="iI49a13NivbOvA1MnXWD-86">
          <mxGeometry width="100" height="100" relative="1" as="geometry">
            <mxPoint x="1330" y="300.0000000000001" as="sourcePoint" />
            <mxPoint x="1329.9999999999998" y="480.0000000000001" as="targetPoint" />
            <Array as="points">
              <mxPoint x="1330" y="390.0000000000001" />
            </Array>
          </mxGeometry>
        </mxCell>
        <mxCell id="iI49a13NivbOvA1MnXWD-97" value="" style="edgeStyle=elbowEdgeStyle;elbow=horizontal;rounded=0;fontColor=#000000;endArrow=none;endFill=0;strokeWidth=8;strokeColor=#23445D;fontSize=12;startSize=8;endSize=8;curved=1;" edge="1" parent="1" source="iI49a13NivbOvA1MnXWD-79" target="iI49a13NivbOvA1MnXWD-89">
          <mxGeometry width="100" height="100" relative="1" as="geometry">
            <mxPoint x="1330" y="300.0000000000001" as="sourcePoint" />
            <mxPoint x="1330" y="720.0000000000001" as="targetPoint" />
            <Array as="points">
              <mxPoint x="1330" y="510.0000000000001" />
            </Array>
          </mxGeometry>
        </mxCell>
        <mxCell id="iI49a13NivbOvA1MnXWD-98" value="" style="edgeStyle=elbowEdgeStyle;elbow=horizontal;rounded=0;fontColor=#000000;endArrow=none;endFill=0;strokeWidth=8;strokeColor=#23445D;fontSize=12;startSize=8;endSize=8;curved=1;" edge="1" parent="1" source="iI49a13NivbOvA1MnXWD-79" target="iI49a13NivbOvA1MnXWD-88">
          <mxGeometry width="100" height="100" relative="1" as="geometry">
            <mxPoint x="1330" y="300.0000000000001" as="sourcePoint" />
            <mxPoint x="1330" y="640.0000000000001" as="targetPoint" />
            <Array as="points">
              <mxPoint x="1330" y="470.0000000000001" />
            </Array>
          </mxGeometry>
        </mxCell>
        <mxCell id="iI49a13NivbOvA1MnXWD-99" value="" style="edgeStyle=elbowEdgeStyle;elbow=horizontal;rounded=0;fontColor=#000000;endArrow=none;endFill=0;strokeWidth=8;strokeColor=#23445D;fontSize=12;startSize=8;endSize=8;curved=1;" edge="1" parent="1" source="iI49a13NivbOvA1MnXWD-79" target="iI49a13NivbOvA1MnXWD-87">
          <mxGeometry width="100" height="100" relative="1" as="geometry">
            <mxPoint x="1330" y="300.0000000000001" as="sourcePoint" />
            <mxPoint x="1329.9999999999998" y="560.0000000000001" as="targetPoint" />
            <Array as="points">
              <mxPoint x="1330" y="440.0000000000001" />
            </Array>
          </mxGeometry>
        </mxCell>
        <mxCell id="iI49a13NivbOvA1MnXWD-100" value="SUB-TASK 1" style="whiteSpace=wrap;rounded=1;fillColor=#12AAB5;strokeColor=none;shadow=1;fontColor=#FFFFFF;" vertex="1" parent="1">
          <mxGeometry x="1519.9999999999998" y="269.9999999999999" width="120" height="60" as="geometry" />
        </mxCell>
        <mxCell id="iI49a13NivbOvA1MnXWD-101" value="SUB-TASK 2" style="whiteSpace=wrap;rounded=1;fillColor=#12AAB5;strokeColor=none;shadow=1;fontColor=#FFFFFF;" vertex="1" parent="1">
          <mxGeometry x="1719.9999999999998" y="269.9999999999999" width="120" height="60" as="geometry" />
        </mxCell>
        <mxCell id="iI49a13NivbOvA1MnXWD-102" value="WORK&#xa;PACKAGE 1" style="whiteSpace=wrap;rounded=1;fillColor=#999999;strokeColor=none;shadow=1;fontColor=#FFFFFF;fontStyle=0" vertex="1" parent="1">
          <mxGeometry x="1519.9999999999998" y="369.9999999999999" width="120" height="60" as="geometry" />
        </mxCell>
        <mxCell id="iI49a13NivbOvA1MnXWD-103" value="WORK&#xa;PACKAGE 2" style="whiteSpace=wrap;rounded=1;fillColor=#999999;strokeColor=none;shadow=1;fontColor=#FFFFFF;fontStyle=0" vertex="1" parent="1">
          <mxGeometry x="1520" y="449.9999999999999" width="120" height="60" as="geometry" />
        </mxCell>
        <mxCell id="iI49a13NivbOvA1MnXWD-104" value="WORK&#xa;PACKAGE 3" style="whiteSpace=wrap;rounded=1;fillColor=#999999;strokeColor=none;shadow=1;fontColor=#FFFFFF;fontStyle=0" vertex="1" parent="1">
          <mxGeometry x="1519.9999999999998" y="529.9999999999999" width="120" height="60" as="geometry" />
        </mxCell>
        <mxCell id="iI49a13NivbOvA1MnXWD-105" value="WORK&#xa;PACKAGE 4" style="whiteSpace=wrap;rounded=1;fillColor=#999999;strokeColor=none;shadow=1;fontColor=#FFFFFF;fontStyle=0" vertex="1" parent="1">
          <mxGeometry x="1520" y="609.9999999999999" width="120" height="60" as="geometry" />
        </mxCell>
        <mxCell id="iI49a13NivbOvA1MnXWD-106" value="WORK&#xa;PACKAGE 5" style="whiteSpace=wrap;rounded=1;fillColor=#999999;strokeColor=none;shadow=1;fontColor=#FFFFFF;fontStyle=0" vertex="1" parent="1">
          <mxGeometry x="1520" y="689.9999999999999" width="120" height="60" as="geometry" />
        </mxCell>
        <mxCell id="iI49a13NivbOvA1MnXWD-107" value="WORK&#xa;PACKAGE 1" style="whiteSpace=wrap;rounded=1;fillColor=#999999;strokeColor=none;shadow=1;fontColor=#FFFFFF;fontStyle=0" vertex="1" parent="1">
          <mxGeometry x="1719.9999999999993" y="369.9999999999999" width="120" height="60" as="geometry" />
        </mxCell>
        <mxCell id="iI49a13NivbOvA1MnXWD-108" value="WORK&#xa;PACKAGE 2" style="whiteSpace=wrap;rounded=1;fillColor=#999999;strokeColor=none;shadow=1;fontColor=#FFFFFF;fontStyle=0" vertex="1" parent="1">
          <mxGeometry x="1719.9999999999995" y="449.9999999999999" width="120" height="60" as="geometry" />
        </mxCell>
        <mxCell id="iI49a13NivbOvA1MnXWD-109" value="WORK&#xa;PACKAGE 3" style="whiteSpace=wrap;rounded=1;fillColor=#999999;strokeColor=none;shadow=1;fontColor=#FFFFFF;fontStyle=0" vertex="1" parent="1">
          <mxGeometry x="1719.9999999999995" y="529.9999999999999" width="120" height="60" as="geometry" />
        </mxCell>
        <mxCell id="iI49a13NivbOvA1MnXWD-110" value="WORK&#xa;PACKAGE 4" style="whiteSpace=wrap;rounded=1;fillColor=#999999;strokeColor=none;shadow=1;fontColor=#FFFFFF;fontStyle=0" vertex="1" parent="1">
          <mxGeometry x="1719.9999999999995" y="609.9999999999999" width="120" height="60" as="geometry" />
        </mxCell>
        <mxCell id="iI49a13NivbOvA1MnXWD-111" value="WORK&#xa;PACKAGE 5" style="whiteSpace=wrap;rounded=1;fillColor=#999999;strokeColor=none;shadow=1;fontColor=#FFFFFF;fontStyle=0" vertex="1" parent="1">
          <mxGeometry x="1719.9999999999998" y="689.9999999999999" width="120" height="60" as="geometry" />
        </mxCell>
        <mxCell id="iI49a13NivbOvA1MnXWD-112" value="" style="edgeStyle=elbowEdgeStyle;elbow=horizontal;rounded=0;fontColor=#000000;endArrow=none;endFill=0;strokeWidth=8;strokeColor=#23445D;fontSize=12;startSize=8;endSize=8;curved=1;" edge="1" parent="1" source="iI49a13NivbOvA1MnXWD-100" target="iI49a13NivbOvA1MnXWD-102">
          <mxGeometry width="100" height="100" relative="1" as="geometry">
            <mxPoint x="1500" y="300.0000000000002" as="sourcePoint" />
            <mxPoint x="1509.9999999999995" y="399.9999999999998" as="targetPoint" />
            <Array as="points">
              <mxPoint x="1500" y="349.9999999999998" />
            </Array>
          </mxGeometry>
        </mxCell>
        <mxCell id="iI49a13NivbOvA1MnXWD-113" value="" style="edgeStyle=elbowEdgeStyle;elbow=horizontal;rounded=0;fontColor=#000000;endArrow=none;endFill=0;strokeWidth=8;strokeColor=#23445D;fontSize=12;startSize=8;endSize=8;curved=1;" edge="1" parent="1" source="iI49a13NivbOvA1MnXWD-100" target="iI49a13NivbOvA1MnXWD-103">
          <mxGeometry width="100" height="100" relative="1" as="geometry">
            <mxPoint x="1510" y="299.9999999999998" as="sourcePoint" />
            <mxPoint x="1509.9999999999998" y="479.9999999999998" as="targetPoint" />
            <Array as="points">
              <mxPoint x="1500" y="389.9999999999998" />
            </Array>
          </mxGeometry>
        </mxCell>
        <mxCell id="iI49a13NivbOvA1MnXWD-114" value="" style="edgeStyle=elbowEdgeStyle;elbow=horizontal;rounded=0;fontColor=#000000;endArrow=none;endFill=0;strokeWidth=8;strokeColor=#23445D;fontSize=12;startSize=8;endSize=8;curved=1;" edge="1" parent="1" source="iI49a13NivbOvA1MnXWD-100" target="iI49a13NivbOvA1MnXWD-106">
          <mxGeometry width="100" height="100" relative="1" as="geometry">
            <mxPoint x="1510" y="299.9999999999998" as="sourcePoint" />
            <mxPoint x="1510" y="719.9999999999998" as="targetPoint" />
            <Array as="points">
              <mxPoint x="1500" y="519.9999999999998" />
            </Array>
          </mxGeometry>
        </mxCell>
        <mxCell id="iI49a13NivbOvA1MnXWD-115" value="" style="edgeStyle=elbowEdgeStyle;elbow=horizontal;rounded=0;fontColor=#000000;endArrow=none;endFill=0;strokeWidth=8;strokeColor=#23445D;fontSize=12;startSize=8;endSize=8;curved=1;" edge="1" parent="1" source="iI49a13NivbOvA1MnXWD-100" target="iI49a13NivbOvA1MnXWD-105">
          <mxGeometry width="100" height="100" relative="1" as="geometry">
            <mxPoint x="1510" y="299.9999999999998" as="sourcePoint" />
            <mxPoint x="1510" y="639.9999999999998" as="targetPoint" />
            <Array as="points">
              <mxPoint x="1500" y="469.9999999999998" />
            </Array>
          </mxGeometry>
        </mxCell>
        <mxCell id="iI49a13NivbOvA1MnXWD-116" value="" style="edgeStyle=elbowEdgeStyle;elbow=horizontal;rounded=0;fontColor=#000000;endArrow=none;endFill=0;strokeWidth=8;strokeColor=#23445D;fontSize=12;startSize=8;endSize=8;curved=1;" edge="1" parent="1" source="iI49a13NivbOvA1MnXWD-100" target="iI49a13NivbOvA1MnXWD-104">
          <mxGeometry width="100" height="100" relative="1" as="geometry">
            <mxPoint x="1510" y="299.9999999999998" as="sourcePoint" />
            <mxPoint x="1509.9999999999998" y="559.9999999999998" as="targetPoint" />
            <Array as="points">
              <mxPoint x="1500" y="439.9999999999998" />
            </Array>
          </mxGeometry>
        </mxCell>
        <mxCell id="iI49a13NivbOvA1MnXWD-117" value="" style="edgeStyle=elbowEdgeStyle;elbow=horizontal;rounded=0;fontColor=#000000;endArrow=none;endFill=0;strokeWidth=8;strokeColor=#23445D;fontSize=12;startSize=8;endSize=8;curved=1;" edge="1" parent="1" source="iI49a13NivbOvA1MnXWD-101" target="iI49a13NivbOvA1MnXWD-107">
          <mxGeometry width="100" height="100" relative="1" as="geometry">
            <mxPoint x="1690" y="300.0000000000002" as="sourcePoint" />
            <mxPoint x="1699.9999999999995" y="399.9999999999998" as="targetPoint" />
            <Array as="points">
              <mxPoint x="1700" y="349.9999999999998" />
            </Array>
          </mxGeometry>
        </mxCell>
        <mxCell id="iI49a13NivbOvA1MnXWD-118" value="" style="edgeStyle=elbowEdgeStyle;elbow=horizontal;rounded=0;fontColor=#000000;endArrow=none;endFill=0;strokeWidth=8;strokeColor=#23445D;fontSize=12;startSize=8;endSize=8;curved=1;" edge="1" parent="1" source="iI49a13NivbOvA1MnXWD-101" target="iI49a13NivbOvA1MnXWD-108">
          <mxGeometry width="100" height="100" relative="1" as="geometry">
            <mxPoint x="1700" y="299.9999999999998" as="sourcePoint" />
            <mxPoint x="1699.9999999999998" y="479.9999999999998" as="targetPoint" />
            <Array as="points">
              <mxPoint x="1700" y="389.9999999999998" />
            </Array>
          </mxGeometry>
        </mxCell>
        <mxCell id="iI49a13NivbOvA1MnXWD-119" value="" style="edgeStyle=elbowEdgeStyle;elbow=horizontal;rounded=0;fontColor=#000000;endArrow=none;endFill=0;strokeWidth=8;strokeColor=#23445D;fontSize=12;startSize=8;endSize=8;curved=1;" edge="1" parent="1" source="iI49a13NivbOvA1MnXWD-101" target="iI49a13NivbOvA1MnXWD-111">
          <mxGeometry width="100" height="100" relative="1" as="geometry">
            <mxPoint x="1700" y="299.9999999999998" as="sourcePoint" />
            <mxPoint x="1700" y="719.9999999999998" as="targetPoint" />
            <Array as="points">
              <mxPoint x="1700" y="509.9999999999998" />
            </Array>
          </mxGeometry>
        </mxCell>
        <mxCell id="iI49a13NivbOvA1MnXWD-120" value="" style="edgeStyle=elbowEdgeStyle;elbow=horizontal;rounded=0;fontColor=#000000;endArrow=none;endFill=0;strokeWidth=8;strokeColor=#23445D;fontSize=12;startSize=8;endSize=8;curved=1;" edge="1" parent="1" source="iI49a13NivbOvA1MnXWD-101" target="iI49a13NivbOvA1MnXWD-110">
          <mxGeometry width="100" height="100" relative="1" as="geometry">
            <mxPoint x="1700" y="299.9999999999998" as="sourcePoint" />
            <mxPoint x="1700" y="639.9999999999998" as="targetPoint" />
            <Array as="points">
              <mxPoint x="1700" y="469.9999999999998" />
            </Array>
          </mxGeometry>
        </mxCell>
        <mxCell id="iI49a13NivbOvA1MnXWD-121" value="" style="edgeStyle=elbowEdgeStyle;elbow=horizontal;rounded=0;fontColor=#000000;endArrow=none;endFill=0;strokeWidth=8;strokeColor=#23445D;fontSize=12;startSize=8;endSize=8;curved=1;" edge="1" parent="1" source="iI49a13NivbOvA1MnXWD-101" target="iI49a13NivbOvA1MnXWD-109">
          <mxGeometry width="100" height="100" relative="1" as="geometry">
            <mxPoint x="1700" y="299.9999999999998" as="sourcePoint" />
            <mxPoint x="1699.9999999999998" y="559.9999999999998" as="targetPoint" />
            <Array as="points">
              <mxPoint x="1700" y="439.9999999999998" />
            </Array>
          </mxGeometry>
        </mxCell>
        <mxCell id="iI49a13NivbOvA1MnXWD-122" value="SUB-TASK 1" style="whiteSpace=wrap;rounded=1;fillColor=#12AAB5;strokeColor=none;shadow=1;fontColor=#FFFFFF;" vertex="1" parent="1">
          <mxGeometry x="1889.9999999999998" y="269.9999999999997" width="120" height="60" as="geometry" />
        </mxCell>
        <mxCell id="iI49a13NivbOvA1MnXWD-123" value="SUB-TASK 2" style="whiteSpace=wrap;rounded=1;fillColor=#12AAB5;strokeColor=none;shadow=1;fontColor=#FFFFFF;" vertex="1" parent="1">
          <mxGeometry x="2090" y="269.9999999999997" width="120" height="60" as="geometry" />
        </mxCell>
        <mxCell id="iI49a13NivbOvA1MnXWD-124" value="WORK&#xa;PACKAGE 1" style="whiteSpace=wrap;rounded=1;fillColor=#999999;strokeColor=none;shadow=1;fontColor=#FFFFFF;fontStyle=0" vertex="1" parent="1">
          <mxGeometry x="1889.9999999999998" y="369.9999999999997" width="120" height="60" as="geometry" />
        </mxCell>
        <mxCell id="iI49a13NivbOvA1MnXWD-125" value="WORK&#xa;PACKAGE 2" style="whiteSpace=wrap;rounded=1;fillColor=#999999;strokeColor=none;shadow=1;fontColor=#FFFFFF;fontStyle=0" vertex="1" parent="1">
          <mxGeometry x="1890" y="449.9999999999997" width="120" height="60" as="geometry" />
        </mxCell>
        <mxCell id="iI49a13NivbOvA1MnXWD-126" value="WORK&#xa;PACKAGE 3" style="whiteSpace=wrap;rounded=1;fillColor=#999999;strokeColor=none;shadow=1;fontColor=#FFFFFF;fontStyle=0" vertex="1" parent="1">
          <mxGeometry x="1889.9999999999998" y="529.9999999999997" width="120" height="60" as="geometry" />
        </mxCell>
        <mxCell id="iI49a13NivbOvA1MnXWD-127" value="WORK&#xa;PACKAGE 4" style="whiteSpace=wrap;rounded=1;fillColor=#999999;strokeColor=none;shadow=1;fontColor=#FFFFFF;fontStyle=0" vertex="1" parent="1">
          <mxGeometry x="1890" y="609.9999999999997" width="120" height="60" as="geometry" />
        </mxCell>
        <mxCell id="iI49a13NivbOvA1MnXWD-128" value="WORK&#xa;PACKAGE 5" style="whiteSpace=wrap;rounded=1;fillColor=#999999;strokeColor=none;shadow=1;fontColor=#FFFFFF;fontStyle=0" vertex="1" parent="1">
          <mxGeometry x="1890" y="689.9999999999997" width="120" height="60" as="geometry" />
        </mxCell>
        <mxCell id="iI49a13NivbOvA1MnXWD-129" value="WORK&#xa;PACKAGE 1" style="whiteSpace=wrap;rounded=1;fillColor=#999999;strokeColor=none;shadow=1;fontColor=#FFFFFF;fontStyle=0" vertex="1" parent="1">
          <mxGeometry x="2089.999999999999" y="369.9999999999997" width="120" height="60" as="geometry" />
        </mxCell>
        <mxCell id="iI49a13NivbOvA1MnXWD-130" value="WORK&#xa;PACKAGE 2" style="whiteSpace=wrap;rounded=1;fillColor=#999999;strokeColor=none;shadow=1;fontColor=#FFFFFF;fontStyle=0" vertex="1" parent="1">
          <mxGeometry x="2089.9999999999995" y="449.9999999999997" width="120" height="60" as="geometry" />
        </mxCell>
        <mxCell id="iI49a13NivbOvA1MnXWD-131" value="WORK&#xa;PACKAGE 3" style="whiteSpace=wrap;rounded=1;fillColor=#999999;strokeColor=none;shadow=1;fontColor=#FFFFFF;fontStyle=0" vertex="1" parent="1">
          <mxGeometry x="2089.9999999999995" y="529.9999999999997" width="120" height="60" as="geometry" />
        </mxCell>
        <mxCell id="iI49a13NivbOvA1MnXWD-132" value="WORK&#xa;PACKAGE 4" style="whiteSpace=wrap;rounded=1;fillColor=#999999;strokeColor=none;shadow=1;fontColor=#FFFFFF;fontStyle=0" vertex="1" parent="1">
          <mxGeometry x="2089.9999999999995" y="609.9999999999997" width="120" height="60" as="geometry" />
        </mxCell>
        <mxCell id="iI49a13NivbOvA1MnXWD-133" value="WORK&#xa;PACKAGE 5" style="whiteSpace=wrap;rounded=1;fillColor=#999999;strokeColor=none;shadow=1;fontColor=#FFFFFF;fontStyle=0" vertex="1" parent="1">
          <mxGeometry x="2090" y="689.9999999999997" width="120" height="60" as="geometry" />
        </mxCell>
        <mxCell id="iI49a13NivbOvA1MnXWD-134" value="" style="edgeStyle=elbowEdgeStyle;elbow=horizontal;rounded=0;fontColor=#000000;endArrow=none;endFill=0;strokeWidth=8;strokeColor=#23445D;fontSize=12;startSize=8;endSize=8;curved=1;" edge="1" parent="1" source="iI49a13NivbOvA1MnXWD-122" target="iI49a13NivbOvA1MnXWD-124">
          <mxGeometry width="100" height="100" relative="1" as="geometry">
            <mxPoint x="1870" y="300.00000000000006" as="sourcePoint" />
            <mxPoint x="1879.9999999999995" y="399.9999999999996" as="targetPoint" />
            <Array as="points">
              <mxPoint x="1870" y="349.9999999999996" />
            </Array>
          </mxGeometry>
        </mxCell>
        <mxCell id="iI49a13NivbOvA1MnXWD-135" value="" style="edgeStyle=elbowEdgeStyle;elbow=horizontal;rounded=0;fontColor=#000000;endArrow=none;endFill=0;strokeWidth=8;strokeColor=#23445D;fontSize=12;startSize=8;endSize=8;curved=1;" edge="1" parent="1" source="iI49a13NivbOvA1MnXWD-122" target="iI49a13NivbOvA1MnXWD-125">
          <mxGeometry width="100" height="100" relative="1" as="geometry">
            <mxPoint x="1880" y="299.9999999999996" as="sourcePoint" />
            <mxPoint x="1879.9999999999998" y="479.99999999999955" as="targetPoint" />
            <Array as="points">
              <mxPoint x="1870" y="389.9999999999996" />
            </Array>
          </mxGeometry>
        </mxCell>
        <mxCell id="iI49a13NivbOvA1MnXWD-136" value="" style="edgeStyle=elbowEdgeStyle;elbow=horizontal;rounded=0;fontColor=#000000;endArrow=none;endFill=0;strokeWidth=8;strokeColor=#23445D;fontSize=12;startSize=8;endSize=8;curved=1;" edge="1" parent="1" source="iI49a13NivbOvA1MnXWD-122" target="iI49a13NivbOvA1MnXWD-128">
          <mxGeometry width="100" height="100" relative="1" as="geometry">
            <mxPoint x="1880" y="299.9999999999996" as="sourcePoint" />
            <mxPoint x="1880" y="719.9999999999995" as="targetPoint" />
            <Array as="points">
              <mxPoint x="1870" y="519.9999999999995" />
            </Array>
          </mxGeometry>
        </mxCell>
        <mxCell id="iI49a13NivbOvA1MnXWD-137" value="" style="edgeStyle=elbowEdgeStyle;elbow=horizontal;rounded=0;fontColor=#000000;endArrow=none;endFill=0;strokeWidth=8;strokeColor=#23445D;fontSize=12;startSize=8;endSize=8;curved=1;" edge="1" parent="1" source="iI49a13NivbOvA1MnXWD-122" target="iI49a13NivbOvA1MnXWD-127">
          <mxGeometry width="100" height="100" relative="1" as="geometry">
            <mxPoint x="1880" y="299.9999999999996" as="sourcePoint" />
            <mxPoint x="1880" y="639.9999999999995" as="targetPoint" />
            <Array as="points">
              <mxPoint x="1870" y="469.99999999999955" />
            </Array>
          </mxGeometry>
        </mxCell>
        <mxCell id="iI49a13NivbOvA1MnXWD-138" value="" style="edgeStyle=elbowEdgeStyle;elbow=horizontal;rounded=0;fontColor=#000000;endArrow=none;endFill=0;strokeWidth=8;strokeColor=#23445D;fontSize=12;startSize=8;endSize=8;curved=1;" edge="1" parent="1" source="iI49a13NivbOvA1MnXWD-122" target="iI49a13NivbOvA1MnXWD-126">
          <mxGeometry width="100" height="100" relative="1" as="geometry">
            <mxPoint x="1880" y="299.9999999999996" as="sourcePoint" />
            <mxPoint x="1879.9999999999998" y="559.9999999999995" as="targetPoint" />
            <Array as="points">
              <mxPoint x="1870" y="439.9999999999996" />
            </Array>
          </mxGeometry>
        </mxCell>
        <mxCell id="iI49a13NivbOvA1MnXWD-139" value="" style="edgeStyle=elbowEdgeStyle;elbow=horizontal;rounded=0;fontColor=#000000;endArrow=none;endFill=0;strokeWidth=8;strokeColor=#23445D;fontSize=12;startSize=8;endSize=8;curved=1;" edge="1" parent="1" source="iI49a13NivbOvA1MnXWD-123" target="iI49a13NivbOvA1MnXWD-129">
          <mxGeometry width="100" height="100" relative="1" as="geometry">
            <mxPoint x="2060" y="300.00000000000006" as="sourcePoint" />
            <mxPoint x="2069.9999999999995" y="399.9999999999996" as="targetPoint" />
            <Array as="points">
              <mxPoint x="2070" y="349.9999999999996" />
            </Array>
          </mxGeometry>
        </mxCell>
        <mxCell id="iI49a13NivbOvA1MnXWD-140" value="" style="edgeStyle=elbowEdgeStyle;elbow=horizontal;rounded=0;fontColor=#000000;endArrow=none;endFill=0;strokeWidth=8;strokeColor=#23445D;fontSize=12;startSize=8;endSize=8;curved=1;" edge="1" parent="1" source="iI49a13NivbOvA1MnXWD-123" target="iI49a13NivbOvA1MnXWD-130">
          <mxGeometry width="100" height="100" relative="1" as="geometry">
            <mxPoint x="2070" y="299.9999999999996" as="sourcePoint" />
            <mxPoint x="2070" y="479.99999999999955" as="targetPoint" />
            <Array as="points">
              <mxPoint x="2070" y="389.9999999999996" />
            </Array>
          </mxGeometry>
        </mxCell>
        <mxCell id="iI49a13NivbOvA1MnXWD-141" value="" style="edgeStyle=elbowEdgeStyle;elbow=horizontal;rounded=0;fontColor=#000000;endArrow=none;endFill=0;strokeWidth=8;strokeColor=#23445D;fontSize=12;startSize=8;endSize=8;curved=1;" edge="1" parent="1" source="iI49a13NivbOvA1MnXWD-123" target="iI49a13NivbOvA1MnXWD-133">
          <mxGeometry width="100" height="100" relative="1" as="geometry">
            <mxPoint x="2070" y="299.9999999999996" as="sourcePoint" />
            <mxPoint x="2070" y="719.9999999999995" as="targetPoint" />
            <Array as="points">
              <mxPoint x="2070" y="509.99999999999955" />
            </Array>
          </mxGeometry>
        </mxCell>
        <mxCell id="iI49a13NivbOvA1MnXWD-142" value="" style="edgeStyle=elbowEdgeStyle;elbow=horizontal;rounded=0;fontColor=#000000;endArrow=none;endFill=0;strokeWidth=8;strokeColor=#23445D;fontSize=12;startSize=8;endSize=8;curved=1;" edge="1" parent="1" source="iI49a13NivbOvA1MnXWD-123" target="iI49a13NivbOvA1MnXWD-132">
          <mxGeometry width="100" height="100" relative="1" as="geometry">
            <mxPoint x="2070" y="299.9999999999996" as="sourcePoint" />
            <mxPoint x="2070" y="639.9999999999995" as="targetPoint" />
            <Array as="points">
              <mxPoint x="2070" y="469.99999999999955" />
            </Array>
          </mxGeometry>
        </mxCell>
        <mxCell id="iI49a13NivbOvA1MnXWD-143" value="" style="edgeStyle=elbowEdgeStyle;elbow=horizontal;rounded=0;fontColor=#000000;endArrow=none;endFill=0;strokeWidth=8;strokeColor=#23445D;fontSize=12;startSize=8;endSize=8;curved=1;" edge="1" parent="1" source="iI49a13NivbOvA1MnXWD-123" target="iI49a13NivbOvA1MnXWD-131">
          <mxGeometry width="100" height="100" relative="1" as="geometry">
            <mxPoint x="2070" y="299.9999999999996" as="sourcePoint" />
            <mxPoint x="2070" y="559.9999999999995" as="targetPoint" />
            <Array as="points">
              <mxPoint x="2070" y="439.9999999999996" />
            </Array>
          </mxGeometry>
        </mxCell>
        <mxCell id="iI49a13NivbOvA1MnXWD-144" value="" style="edgeStyle=elbowEdgeStyle;elbow=vertical;rounded=0;fontColor=#000000;endArrow=none;endFill=0;strokeWidth=8;strokeColor=#23445D;fontSize=12;startSize=8;endSize=8;curved=1;" edge="1" parent="1" source="iI49a13NivbOvA1MnXWD-5" target="iI49a13NivbOvA1MnXWD-56">
          <mxGeometry width="100" height="100" relative="1" as="geometry">
            <mxPoint x="750" y="240" as="sourcePoint" />
            <mxPoint x="850" y="140" as="targetPoint" />
          </mxGeometry>
        </mxCell>
        <mxCell id="iI49a13NivbOvA1MnXWD-145" value="" style="edgeStyle=elbowEdgeStyle;elbow=vertical;rounded=0;fontColor=#000000;endArrow=none;endFill=0;strokeWidth=8;strokeColor=#23445D;fontSize=12;startSize=8;endSize=8;curved=1;" edge="1" parent="1" source="iI49a13NivbOvA1MnXWD-5" target="iI49a13NivbOvA1MnXWD-57">
          <mxGeometry width="100" height="100" relative="1" as="geometry">
            <mxPoint x="1000" y="250" as="sourcePoint" />
            <mxPoint x="1100" y="150" as="targetPoint" />
          </mxGeometry>
        </mxCell>
        <mxCell id="iI49a13NivbOvA1MnXWD-146" value="" style="edgeStyle=elbowEdgeStyle;elbow=vertical;rounded=0;fontColor=#000000;endArrow=none;endFill=0;strokeWidth=8;strokeColor=#23445D;fontSize=12;startSize=8;endSize=8;curved=1;" edge="1" parent="1" source="iI49a13NivbOvA1MnXWD-6" target="iI49a13NivbOvA1MnXWD-78">
          <mxGeometry width="100" height="100" relative="1" as="geometry">
            <mxPoint x="1310" y="270" as="sourcePoint" />
            <mxPoint x="1210" y="160" as="targetPoint" />
          </mxGeometry>
        </mxCell>
        <mxCell id="iI49a13NivbOvA1MnXWD-147" value="" style="edgeStyle=elbowEdgeStyle;elbow=vertical;rounded=0;fontColor=#000000;endArrow=none;endFill=0;strokeWidth=8;strokeColor=#23445D;fontSize=12;startSize=8;endSize=8;curved=1;" edge="1" parent="1" source="iI49a13NivbOvA1MnXWD-6" target="iI49a13NivbOvA1MnXWD-79">
          <mxGeometry width="100" height="100" relative="1" as="geometry">
            <mxPoint x="1400" y="260" as="sourcePoint" />
            <mxPoint x="1500" y="160" as="targetPoint" />
          </mxGeometry>
        </mxCell>
        <mxCell id="iI49a13NivbOvA1MnXWD-148" value="" style="edgeStyle=elbowEdgeStyle;elbow=vertical;rounded=0;fontColor=#000000;endArrow=none;endFill=0;strokeWidth=8;strokeColor=#23445D;fontSize=12;startSize=8;endSize=8;curved=1;" edge="1" parent="1" source="iI49a13NivbOvA1MnXWD-7" target="iI49a13NivbOvA1MnXWD-100">
          <mxGeometry width="100" height="100" relative="1" as="geometry">
            <mxPoint x="1520" y="260" as="sourcePoint" />
            <mxPoint x="1620" y="160" as="targetPoint" />
          </mxGeometry>
        </mxCell>
        <mxCell id="iI49a13NivbOvA1MnXWD-149" value="" style="edgeStyle=elbowEdgeStyle;elbow=vertical;rounded=0;fontColor=#000000;endArrow=none;endFill=0;strokeWidth=8;strokeColor=#23445D;fontSize=12;startSize=8;endSize=8;curved=1;" edge="1" parent="1" source="iI49a13NivbOvA1MnXWD-7" target="iI49a13NivbOvA1MnXWD-101">
          <mxGeometry width="100" height="100" relative="1" as="geometry">
            <mxPoint x="1750" y="260" as="sourcePoint" />
            <mxPoint x="1850" y="160" as="targetPoint" />
          </mxGeometry>
        </mxCell>
        <mxCell id="iI49a13NivbOvA1MnXWD-150" value="" style="edgeStyle=elbowEdgeStyle;elbow=vertical;rounded=0;fontColor=#000000;endArrow=none;endFill=0;strokeWidth=8;strokeColor=#23445D;fontSize=12;startSize=8;endSize=8;curved=1;" edge="1" parent="1" source="iI49a13NivbOvA1MnXWD-4" target="iI49a13NivbOvA1MnXWD-122">
          <mxGeometry width="100" height="100" relative="1" as="geometry">
            <mxPoint x="1870" y="260" as="sourcePoint" />
            <mxPoint x="1970" y="160" as="targetPoint" />
          </mxGeometry>
        </mxCell>
        <mxCell id="iI49a13NivbOvA1MnXWD-151" value="" style="edgeStyle=elbowEdgeStyle;elbow=vertical;rounded=0;fontColor=#000000;endArrow=none;endFill=0;strokeWidth=8;strokeColor=#23445D;fontSize=12;startSize=8;endSize=8;curved=1;" edge="1" parent="1" source="iI49a13NivbOvA1MnXWD-4" target="iI49a13NivbOvA1MnXWD-123">
          <mxGeometry width="100" height="100" relative="1" as="geometry">
            <mxPoint x="2130" y="260" as="sourcePoint" />
            <mxPoint x="2230" y="160" as="targetPoint" />
          </mxGeometry>
        </mxCell>
        <mxCell id="iI49a13NivbOvA1MnXWD-152" value="" style="edgeStyle=elbowEdgeStyle;elbow=vertical;rounded=0;fontColor=#000000;endArrow=none;endFill=0;strokeWidth=8;strokeColor=#23445D;fontSize=12;startSize=8;endSize=8;curved=1;" edge="1" parent="1" source="iI49a13NivbOvA1MnXWD-1" target="iI49a13NivbOvA1MnXWD-2">
          <mxGeometry width="100" height="100" relative="1" as="geometry">
            <mxPoint x="510" y="110" as="sourcePoint" />
            <mxPoint x="610" y="10" as="targetPoint" />
          </mxGeometry>
        </mxCell>
        <mxCell id="iI49a13NivbOvA1MnXWD-153" value="" style="edgeStyle=elbowEdgeStyle;elbow=vertical;rounded=0;fontColor=#000000;endArrow=none;endFill=0;strokeWidth=8;strokeColor=#23445D;fontSize=12;startSize=8;endSize=8;curved=1;" edge="1" parent="1" source="iI49a13NivbOvA1MnXWD-1" target="iI49a13NivbOvA1MnXWD-3">
          <mxGeometry width="100" height="100" relative="1" as="geometry">
            <mxPoint x="520" y="120" as="sourcePoint" />
            <mxPoint x="620" y="20" as="targetPoint" />
          </mxGeometry>
        </mxCell>
        <mxCell id="iI49a13NivbOvA1MnXWD-154" value="" style="edgeStyle=elbowEdgeStyle;elbow=vertical;rounded=0;fontColor=#000000;endArrow=none;endFill=0;strokeWidth=8;strokeColor=#23445D;fontSize=12;startSize=8;endSize=8;curved=1;" edge="1" parent="1" source="iI49a13NivbOvA1MnXWD-1" target="iI49a13NivbOvA1MnXWD-5">
          <mxGeometry width="100" height="100" relative="1" as="geometry">
            <mxPoint x="530" y="130" as="sourcePoint" />
            <mxPoint x="630" y="30" as="targetPoint" />
          </mxGeometry>
        </mxCell>
        <mxCell id="iI49a13NivbOvA1MnXWD-155" value="" style="edgeStyle=elbowEdgeStyle;elbow=vertical;rounded=0;fontColor=#000000;endArrow=none;endFill=0;strokeWidth=8;strokeColor=#23445D;fontSize=12;startSize=8;endSize=8;curved=1;" edge="1" parent="1" source="iI49a13NivbOvA1MnXWD-1" target="iI49a13NivbOvA1MnXWD-6">
          <mxGeometry width="100" height="100" relative="1" as="geometry">
            <mxPoint x="540" y="140" as="sourcePoint" />
            <mxPoint x="640" y="40" as="targetPoint" />
          </mxGeometry>
        </mxCell>
        <mxCell id="iI49a13NivbOvA1MnXWD-156" value="" style="edgeStyle=elbowEdgeStyle;elbow=vertical;rounded=0;fontColor=#000000;endArrow=none;endFill=0;strokeWidth=8;strokeColor=#23445D;fontSize=12;startSize=8;endSize=8;curved=1;" edge="1" parent="1" source="iI49a13NivbOvA1MnXWD-1" target="iI49a13NivbOvA1MnXWD-7">
          <mxGeometry width="100" height="100" relative="1" as="geometry">
            <mxPoint x="550" y="150" as="sourcePoint" />
            <mxPoint x="650" y="50" as="targetPoint" />
          </mxGeometry>
        </mxCell>
        <mxCell id="iI49a13NivbOvA1MnXWD-157" value="" style="edgeStyle=elbowEdgeStyle;elbow=vertical;rounded=0;fontColor=#000000;endArrow=none;endFill=0;strokeWidth=8;strokeColor=#23445D;fontSize=12;startSize=8;endSize=8;curved=1;" edge="1" parent="1" source="iI49a13NivbOvA1MnXWD-1" target="iI49a13NivbOvA1MnXWD-4">
          <mxGeometry width="100" height="100" relative="1" as="geometry">
            <mxPoint x="560" y="160" as="sourcePoint" />
            <mxPoint x="660" y="60" as="targetPoint" />
          </mxGeometry>
        </mxCell>
        <mxCell id="iI49a13NivbOvA1MnXWD-166" value="1.6 Deployment Planning" style="whiteSpace=wrap;rounded=1;fillColor=#999999;strokeColor=none;shadow=1;fontColor=#FFFFFF;fontStyle=0" vertex="1" parent="1">
          <mxGeometry x="-319" y="770" width="120" height="60" as="geometry" />
        </mxCell>
        <mxCell id="iI49a13NivbOvA1MnXWD-167" value="" style="edgeStyle=elbowEdgeStyle;elbow=horizontal;rounded=0;fontColor=#000000;endArrow=none;endFill=0;strokeWidth=8;strokeColor=#23445D;fontSize=12;startSize=8;endSize=8;curved=1;exitX=0;exitY=0.5;exitDx=0;exitDy=0;entryX=0;entryY=0.5;entryDx=0;entryDy=0;" edge="1" parent="1" source="iI49a13NivbOvA1MnXWD-8" target="iI49a13NivbOvA1MnXWD-166">
          <mxGeometry width="100" height="100" relative="1" as="geometry">
            <mxPoint x="-445" y="340" as="sourcePoint" />
            <mxPoint x="-445" y="760" as="targetPoint" />
            <Array as="points">
              <mxPoint x="-342" y="552" />
            </Array>
          </mxGeometry>
        </mxCell>
        <mxCell id="iI49a13NivbOvA1MnXWD-168" value="2.3 Authentication" style="whiteSpace=wrap;rounded=1;fillColor=#12AAB5;strokeColor=none;shadow=1;fontColor=#FFFFFF;" vertex="1" parent="1">
          <mxGeometry x="276.00000000000045" y="272" width="120" height="60" as="geometry" />
        </mxCell>
        <mxCell id="iI49a13NivbOvA1MnXWD-169" value="2.3.1 Signup / Login Forms" style="whiteSpace=wrap;rounded=1;fillColor=#999999;strokeColor=none;shadow=1;fontColor=#FFFFFF;fontStyle=0" vertex="1" parent="1">
          <mxGeometry x="276" y="372" width="120" height="60" as="geometry" />
        </mxCell>
        <mxCell id="iI49a13NivbOvA1MnXWD-170" value="2.3.2 Auth Context + Token Handling" style="whiteSpace=wrap;rounded=1;fillColor=#999999;strokeColor=none;shadow=1;fontColor=#FFFFFF;fontStyle=0" vertex="1" parent="1">
          <mxGeometry x="276.0000000000002" y="452" width="120" height="60" as="geometry" />
        </mxCell>
        <mxCell id="iI49a13NivbOvA1MnXWD-174" value="" style="edgeStyle=elbowEdgeStyle;elbow=vertical;rounded=0;fontColor=#000000;endArrow=none;endFill=0;strokeWidth=8;strokeColor=#23445D;fontSize=12;startSize=8;endSize=8;curved=1;exitX=0.5;exitY=1;exitDx=0;exitDy=0;entryX=0.5;entryY=0;entryDx=0;entryDy=0;" edge="1" parent="1" source="iI49a13NivbOvA1MnXWD-3" target="iI49a13NivbOvA1MnXWD-168">
          <mxGeometry width="100" height="100" relative="1" as="geometry">
            <mxPoint x="375" y="232" as="sourcePoint" />
            <mxPoint x="282" y="313" as="targetPoint" />
          </mxGeometry>
        </mxCell>
        <mxCell id="iI49a13NivbOvA1MnXWD-175" value="" style="edgeStyle=elbowEdgeStyle;elbow=horizontal;rounded=0;fontColor=#000000;endArrow=none;endFill=0;strokeWidth=8;strokeColor=#23445D;fontSize=12;startSize=8;endSize=8;curved=1;exitX=0;exitY=0.5;exitDx=0;exitDy=0;entryX=0;entryY=0.5;entryDx=0;entryDy=0;" edge="1" parent="1" source="iI49a13NivbOvA1MnXWD-168" target="iI49a13NivbOvA1MnXWD-169">
          <mxGeometry width="100" height="100" relative="1" as="geometry">
            <mxPoint x="171" y="328" as="sourcePoint" />
            <mxPoint x="171" y="588" as="targetPoint" />
            <Array as="points">
              <mxPoint x="258" y="345" />
            </Array>
          </mxGeometry>
        </mxCell>
        <mxCell id="iI49a13NivbOvA1MnXWD-176" value="" style="edgeStyle=elbowEdgeStyle;elbow=horizontal;rounded=0;fontColor=#000000;endArrow=none;endFill=0;strokeWidth=8;strokeColor=#23445D;fontSize=12;startSize=8;endSize=8;curved=1;exitX=0;exitY=0.5;exitDx=0;exitDy=0;entryX=0;entryY=0.5;entryDx=0;entryDy=0;" edge="1" parent="1" source="iI49a13NivbOvA1MnXWD-168" target="iI49a13NivbOvA1MnXWD-170">
          <mxGeometry width="100" height="100" relative="1" as="geometry">
            <mxPoint x="273" y="339" as="sourcePoint" />
            <mxPoint x="273" y="439" as="targetPoint" />
            <Array as="points">
              <mxPoint x="255" y="382" />
            </Array>
          </mxGeometry>
        </mxCell>
        <mxCell id="iI49a13NivbOvA1MnXWD-177" value="2.4 Forms &amp; UX" style="whiteSpace=wrap;rounded=1;fillColor=#12AAB5;strokeColor=none;shadow=1;fontColor=#FFFFFF;" vertex="1" parent="1">
          <mxGeometry x="442.00000000000045" y="272" width="120" height="60" as="geometry" />
        </mxCell>
        <mxCell id="iI49a13NivbOvA1MnXWD-178" value="2.4.1 Ingredient Checklist UI" style="whiteSpace=wrap;rounded=1;fillColor=#999999;strokeColor=none;shadow=1;fontColor=#FFFFFF;fontStyle=0" vertex="1" parent="1">
          <mxGeometry x="442" y="372" width="120" height="60" as="geometry" />
        </mxCell>
        <mxCell id="iI49a13NivbOvA1MnXWD-179" value="2.4.2 Notes Section" style="whiteSpace=wrap;rounded=1;fillColor=#999999;strokeColor=none;shadow=1;fontColor=#FFFFFF;fontStyle=0" vertex="1" parent="1">
          <mxGeometry x="442.0000000000002" y="452" width="120" height="60" as="geometry" />
        </mxCell>
        <mxCell id="iI49a13NivbOvA1MnXWD-180" value="2.4.3 âSend Me the Listâ Button" style="whiteSpace=wrap;rounded=1;fillColor=#999999;strokeColor=none;shadow=1;fontColor=#FFFFFF;fontStyle=0" vertex="1" parent="1">
          <mxGeometry x="446" y="532" width="120" height="60" as="geometry" />
        </mxCell>
        <mxCell id="iI49a13NivbOvA1MnXWD-181" value="2.4.4 Confirmation Modal" style="whiteSpace=wrap;rounded=1;fillColor=#999999;strokeColor=none;shadow=1;fontColor=#FFFFFF;fontStyle=0" vertex="1" parent="1">
          <mxGeometry x="446.0000000000002" y="612" width="120" height="60" as="geometry" />
        </mxCell>
        <mxCell id="iI49a13NivbOvA1MnXWD-182" value="2.5 Mobile Responsiveness" style="whiteSpace=wrap;rounded=1;fillColor=#12AAB5;strokeColor=none;shadow=1;fontColor=#FFFFFF;" vertex="1" parent="1">
          <mxGeometry x="600" y="272" width="120" height="60" as="geometry" />
        </mxCell>
        <mxCell id="iI49a13NivbOvA1MnXWD-183" value="" style="edgeStyle=elbowEdgeStyle;elbow=vertical;rounded=0;fontColor=#000000;endArrow=none;endFill=0;strokeWidth=8;strokeColor=#23445D;fontSize=12;startSize=8;endSize=8;curved=1;exitX=0.5;exitY=1;exitDx=0;exitDy=0;entryX=0.5;entryY=0;entryDx=0;entryDy=0;" edge="1" parent="1" source="iI49a13NivbOvA1MnXWD-3" target="iI49a13NivbOvA1MnXWD-177">
          <mxGeometry width="100" height="100" relative="1" as="geometry">
            <mxPoint x="308" y="241" as="sourcePoint" />
            <mxPoint x="394" y="322" as="targetPoint" />
          </mxGeometry>
        </mxCell>
        <mxCell id="iI49a13NivbOvA1MnXWD-184" value="" style="edgeStyle=elbowEdgeStyle;elbow=horizontal;rounded=0;fontColor=#000000;endArrow=none;endFill=0;strokeWidth=8;strokeColor=#23445D;fontSize=12;startSize=8;endSize=8;curved=1;exitX=0;exitY=0.5;exitDx=0;exitDy=0;entryX=0;entryY=0.5;entryDx=0;entryDy=0;" edge="1" parent="1" source="iI49a13NivbOvA1MnXWD-177" target="iI49a13NivbOvA1MnXWD-178">
          <mxGeometry width="100" height="100" relative="1" as="geometry">
            <mxPoint x="364" y="406" as="sourcePoint" />
            <mxPoint x="364" y="586" as="targetPoint" />
            <Array as="points">
              <mxPoint x="426" y="359" />
            </Array>
          </mxGeometry>
        </mxCell>
        <mxCell id="iI49a13NivbOvA1MnXWD-185" value="" style="edgeStyle=elbowEdgeStyle;elbow=horizontal;rounded=0;fontColor=#000000;endArrow=none;endFill=0;strokeWidth=8;strokeColor=#23445D;fontSize=12;startSize=8;endSize=8;curved=1;exitX=0;exitY=0.5;exitDx=0;exitDy=0;entryX=0;entryY=0.5;entryDx=0;entryDy=0;" edge="1" parent="1" source="iI49a13NivbOvA1MnXWD-177" target="iI49a13NivbOvA1MnXWD-179">
          <mxGeometry width="100" height="100" relative="1" as="geometry">
            <mxPoint x="450" y="365" as="sourcePoint" />
            <mxPoint x="450" y="465" as="targetPoint" />
            <Array as="points">
              <mxPoint x="424" y="396" />
            </Array>
          </mxGeometry>
        </mxCell>
        <mxCell id="iI49a13NivbOvA1MnXWD-186" value="" style="edgeStyle=elbowEdgeStyle;elbow=horizontal;rounded=0;fontColor=#000000;endArrow=none;endFill=0;strokeWidth=8;strokeColor=#23445D;fontSize=12;startSize=8;endSize=8;curved=1;exitX=0;exitY=0.5;exitDx=0;exitDy=0;entryX=0;entryY=0.5;entryDx=0;entryDy=0;" edge="1" parent="1" source="iI49a13NivbOvA1MnXWD-177" target="iI49a13NivbOvA1MnXWD-180">
          <mxGeometry width="100" height="100" relative="1" as="geometry">
            <mxPoint x="450" y="493" as="sourcePoint" />
            <mxPoint x="450" y="673" as="targetPoint" />
            <Array as="points">
              <mxPoint x="423" y="434" />
            </Array>
          </mxGeometry>
        </mxCell>
        <mxCell id="iI49a13NivbOvA1MnXWD-187" value="" style="edgeStyle=elbowEdgeStyle;elbow=horizontal;rounded=0;fontColor=#000000;endArrow=none;endFill=0;strokeWidth=8;strokeColor=#23445D;fontSize=12;startSize=8;endSize=8;curved=1;exitX=0;exitY=0.5;exitDx=0;exitDy=0;entryX=0;entryY=0.5;entryDx=0;entryDy=0;" edge="1" parent="1" source="iI49a13NivbOvA1MnXWD-177" target="iI49a13NivbOvA1MnXWD-181">
          <mxGeometry width="100" height="100" relative="1" as="geometry">
            <mxPoint x="406" y="532" as="sourcePoint" />
            <mxPoint x="410" y="792" as="targetPoint" />
            <Array as="points">
              <mxPoint x="424" y="469" />
            </Array>
          </mxGeometry>
        </mxCell>
        <mxCell id="iI49a13NivbOvA1MnXWD-188" value="" style="edgeStyle=elbowEdgeStyle;elbow=vertical;rounded=0;fontColor=#000000;endArrow=none;endFill=0;strokeWidth=8;strokeColor=#23445D;fontSize=12;startSize=8;endSize=8;curved=1;exitX=0.5;exitY=1;exitDx=0;exitDy=0;entryX=0.5;entryY=0;entryDx=0;entryDy=0;" edge="1" parent="1" source="iI49a13NivbOvA1MnXWD-3" target="iI49a13NivbOvA1MnXWD-182">
          <mxGeometry width="100" height="100" relative="1" as="geometry">
            <mxPoint x="432" y="231" as="sourcePoint" />
            <mxPoint x="684" y="312" as="targetPoint" />
          </mxGeometry>
        </mxCell>
      </root>
    </mxGraphModel>
  </diagram>
</mxfile>
